<svg width="666" height="508" viewBox="0 0 666 508" fill="none" xmlns="http://www.w3.org/2000/svg">
<g clip-path="url(#clip0_1_24)">
<path d="M230.77 494.651L237.313 496.611L247.986 472.305L238.329 469.413L230.77 494.651Z" fill="#FFB8B8"/>
<path d="M229.74 492.015L242.627 495.874L242.627 495.875C244.805 496.527 246.634 498.018 247.713 500.019C248.792 502.021 249.031 504.369 248.379 506.546L248.299 506.813L227.201 500.494L229.74 492.015Z" fill="#2F2E41"/>
<path d="M292.951 499.997L299.365 497.646L293.348 471.791L283.883 475.262L292.951 499.997Z" fill="#FFB8B8"/>
<path d="M290.548 498.503L303.178 493.872L303.178 493.872C305.313 493.09 307.671 493.187 309.734 494.143C311.797 495.099 313.395 496.836 314.178 498.97L314.274 499.232L293.595 506.813L290.548 498.503Z" fill="#2F2E41"/>
<path d="M241.741 450.651L230.598 487.423L243.969 491.323L256.783 457.337L241.741 450.651Z" fill="#2F2E41"/>
<path d="M276.841 459.008L286.87 493.551L300.798 486.866L290.77 454.551L276.841 459.008Z" fill="#2F2E41"/>
<path d="M271.622 465.238C262.703 465.198 253.804 464.377 245.028 462.786L244.805 462.74V454.243L239.713 453.677L243.687 439.481C241.835 417.611 244.467 389.914 245.319 381.942C245.514 380.073 245.643 379.024 245.643 379.024L250.112 341.037L257.589 334.134L260.986 336.345L267.288 342.646C274.612 360.672 280.424 377.642 280.461 378.732L305.025 457.447L304.859 457.564C296.33 463.585 283.328 465.238 271.622 465.238Z" fill="#3F3D56"/>
<path opacity="0.2" d="M253.281 357.886L251.564 368.606L263.191 373.402L253.281 357.886Z" fill="black"/>
<path d="M276.096 334.078H249.213C248.66 334.078 248.13 333.858 247.739 333.467C247.348 333.076 247.128 332.545 247.127 331.992V320.405C247.136 316.292 248.775 312.351 251.686 309.445C254.597 306.54 258.542 304.908 262.655 304.908C266.767 304.908 270.712 306.54 273.623 309.445C276.534 312.351 278.174 316.292 278.182 320.405V331.992C278.181 332.545 277.961 333.076 277.57 333.467C277.179 333.858 276.649 334.078 276.096 334.078V334.078Z" fill="#2F2E41"/>
<path d="M265.623 333.38C271.91 333.38 277.007 328.283 277.007 321.996C277.007 315.709 271.91 310.612 265.623 310.612C259.336 310.612 254.239 315.709 254.239 321.996C254.239 328.283 259.336 333.38 265.623 333.38Z" fill="#FFB8B8"/>
<path d="M281.855 321.564H265.417L265.248 319.204L264.406 321.564H261.874L261.54 316.886L259.87 321.564H254.972V321.332C254.976 318.075 256.271 314.953 258.574 312.651C260.876 310.348 263.998 309.053 267.255 309.049H269.572C272.829 309.053 275.951 310.348 278.254 312.651C280.556 314.953 281.852 318.075 281.855 321.332V321.564Z" fill="#2F2E41"/>
<path d="M265.282 336.241C265.159 336.241 265.035 336.23 264.913 336.209L252.876 334.085V314.191H266.127L265.799 314.574C261.235 319.897 264.673 328.528 267.129 333.199C267.31 333.542 267.391 333.928 267.362 334.314C267.333 334.7 267.196 335.07 266.966 335.381C266.773 335.647 266.52 335.864 266.228 336.014C265.935 336.163 265.611 336.241 265.282 336.241V336.241Z" fill="#2F2E41"/>
<path d="M286.521 384.325H279.923C279.712 384.326 279.507 384.247 279.351 384.105C279.194 383.963 279.096 383.767 279.076 383.556L277.755 370.019H288.69L287.369 383.556C287.349 383.767 287.251 383.963 287.094 384.105C286.937 384.247 286.733 384.326 286.521 384.325V384.325Z" fill="#FFD84B"/>
<path d="M288.672 371.723H277.773C277.547 371.722 277.331 371.632 277.171 371.473C277.011 371.313 276.922 371.097 276.921 370.871V368.827C276.922 368.602 277.011 368.385 277.171 368.226C277.331 368.066 277.547 367.976 277.773 367.976H288.672C288.898 367.976 289.114 368.066 289.274 368.226C289.434 368.385 289.523 368.602 289.524 368.827V370.871C289.523 371.097 289.434 371.313 289.274 371.473C289.114 371.632 288.898 371.722 288.672 371.723V371.723Z" fill="#2F2E41"/>
<path opacity="0.2" d="M245.919 378.5C248.949 382.009 253.059 384.411 257.602 385.329C262.146 386.247 266.866 385.63 271.02 383.574L273.498 382.348L245.919 378.5Z" fill="black"/>
<path d="M285.533 375.88C285.025 375.309 284.398 374.857 283.697 374.555C282.995 374.253 282.236 374.108 281.473 374.131C280.709 374.154 279.96 374.345 279.278 374.688C278.596 375.032 277.998 375.521 277.526 376.122L266.032 372.895L262.367 379.402L278.663 383.73C279.724 384.457 281.014 384.77 282.29 384.609C283.566 384.448 284.738 383.824 285.585 382.857C286.432 381.889 286.894 380.644 286.885 379.358C286.875 378.072 286.394 376.835 285.533 375.88V375.88Z" fill="#FFB8B8"/>
<path d="M258.104 383.101C252.639 383.101 245.245 379.897 236.467 373.691C235.978 373.352 235.565 372.915 235.253 372.408C234.941 371.901 234.739 371.335 234.657 370.745C234.01 366.643 238.011 361.098 238.403 360.567L242.609 349.016C242.658 348.828 244.013 343.831 247.416 342.053C248.132 341.685 248.92 341.477 249.724 341.443C250.529 341.409 251.331 341.549 252.076 341.854C258.558 344.215 253.497 362.44 252.802 364.831L261.39 368.873L266.843 372.349L274.311 373.13L272.284 382.514L260.942 382.769C260.013 382.996 259.06 383.108 258.104 383.101V383.101Z" fill="#3F3D56"/>
<path d="M665.756 297.494C665.75 286.528 663.305 275.701 658.598 265.797C653.891 255.892 647.039 247.159 638.54 240.23C630.04 233.301 620.106 228.349 609.456 225.733C598.807 223.117 587.709 222.904 576.967 225.107C566.224 227.31 556.106 231.875 547.346 238.472C538.586 245.069 531.403 253.531 526.318 263.247C521.232 272.962 518.372 283.687 517.943 294.645C517.515 305.603 519.529 316.518 523.841 326.601C523.768 326.521 523.694 326.443 523.622 326.362C526.906 334.016 531.458 341.061 537.087 347.199C537.104 347.218 537.121 347.236 537.138 347.254C537.592 347.749 538.049 348.242 538.517 348.724C545.273 355.771 553.362 361.406 562.314 365.301C571.266 369.196 580.902 371.274 590.664 371.414L588.165 507.111H595.884L594.322 417.55L605.487 411.671L603.783 408.436L594.25 413.455L593.517 371.408C612.827 370.965 631.196 362.983 644.697 349.17C658.197 335.357 665.756 316.809 665.756 297.494V297.494Z" fill="#E6E6E6"/>
<path d="M446.315 261.459C446.309 248.608 443.443 235.919 437.927 224.312C432.41 212.705 424.381 202.47 414.42 194.35C404.46 186.229 392.818 180.426 380.337 177.361C367.857 174.295 354.851 174.045 342.262 176.627C329.673 179.209 317.816 184.559 307.55 192.29C297.283 200.02 288.866 209.938 282.906 221.323C276.946 232.709 273.594 245.278 273.092 258.12C272.59 270.961 274.95 283.753 280.003 295.57C279.918 295.475 279.831 295.384 279.746 295.289C283.595 304.259 288.93 312.515 295.527 319.708C295.547 319.73 295.567 319.751 295.587 319.773C296.119 320.353 296.654 320.93 297.202 321.496C305.12 329.754 314.599 336.357 325.09 340.922C335.581 345.487 346.874 347.922 358.314 348.086L355.386 507.111H364.431L362.601 402.153L375.685 395.264L373.689 391.473L362.517 397.355L361.657 348.078C384.287 347.56 405.814 338.206 421.636 322.018C437.457 305.83 446.315 284.094 446.315 261.459V261.459Z" fill="#E6E6E6"/>
<path d="M197.444 227.564C197.436 212.939 194.176 198.5 187.898 185.291C181.62 172.083 172.483 160.436 161.148 151.195C149.813 141.954 136.565 135.35 122.362 131.862C108.16 128.374 93.3596 128.088 79.0334 131.027C64.7072 133.965 51.214 140.053 39.5315 148.851C27.8489 157.648 18.2696 168.934 11.4876 181.891C4.70551 194.847 0.890606 209.151 0.319232 223.764C-0.252143 238.377 2.43433 252.934 8.184 266.381C8.08759 266.274 7.98796 266.17 7.89202 266.062C12.2715 276.27 18.3428 285.664 25.85 293.851C25.8724 293.875 25.8955 293.899 25.9179 293.924C26.5236 294.584 27.1328 295.241 27.7561 295.884C36.7665 305.282 47.554 312.797 59.4923 317.991C71.4306 323.186 84.2818 325.957 97.3 326.144L93.9682 507.111H104.262L102.178 387.671L117.068 379.832L114.797 375.517L102.083 382.211L101.105 326.135C126.857 325.545 151.355 314.901 169.359 296.479C187.363 278.058 197.444 253.322 197.444 227.564V227.564Z" fill="#E6E6E6"/>
<path d="M567.514 128.964C603.126 128.964 631.996 100.094 631.996 64.4818C631.996 28.8695 603.126 0 567.514 0C531.902 0 503.032 28.8695 503.032 64.4818C503.032 100.094 531.902 128.964 567.514 128.964Z" fill="#FFD84B"/>
<path d="M184.169 269.946C255.543 269.946 313.403 212.086 313.403 140.712C313.403 69.3384 255.543 11.4784 184.169 11.4784C112.795 11.4784 54.9354 69.3384 54.9354 140.712C54.9354 212.086 112.795 269.946 184.169 269.946Z" fill="#FFD84B"/>
<path opacity="0.2" d="M88.7471 54.3942C76.6925 82.5921 75.0572 114.158 84.1334 143.45C93.2097 172.743 112.406 197.854 138.292 214.296C164.178 230.738 195.068 237.439 225.44 233.203C255.813 228.967 283.689 214.069 304.089 191.171C296.725 208.399 285.704 223.82 271.788 236.365C257.873 248.911 241.397 258.281 223.501 263.826C205.605 269.372 186.717 270.96 168.146 268.482C149.575 266.003 131.765 259.516 115.95 249.471C100.135 239.426 86.693 226.062 76.5553 210.307C66.4176 194.551 59.8267 176.779 57.2391 158.223C54.6515 139.667 56.1291 120.77 61.5696 102.842C67.0102 84.9138 76.2835 68.3827 88.7471 54.3942V54.3942Z" fill="black"/>
<path d="M184.524 140.712H184.88L191.27 507.111H177.779L184.524 140.712Z" fill="#3F3D56"/>
<path d="M205.078 334.633L183.715 345.88L186.693 351.535L208.055 340.288L205.078 334.633Z" fill="#3F3D56"/>
<path d="M381.836 503.684C381.836 503.684 382.303 493.914 391.861 495.049Z" fill="#3F3D56"/>
<path d="M379.136 494.386C381.778 494.386 383.92 492.245 383.92 489.602C383.92 486.96 381.778 484.818 379.136 484.818C376.493 484.818 374.352 486.96 374.352 489.602C374.352 492.245 376.493 494.386 379.136 494.386Z" fill="#FFD84B"/>
<path d="M379.708 497.658H378.357V507.111H379.708V497.658Z" fill="#3F3D56"/>
<path d="M50.3122 502.333C50.3122 502.333 50.7784 492.563 60.337 493.699Z" fill="#3F3D56"/>
<path d="M47.6114 493.036C50.2535 493.036 52.3953 490.894 52.3953 488.252C52.3953 485.61 50.2535 483.468 47.6114 483.468C44.9692 483.468 42.8274 485.61 42.8274 488.252C42.8274 490.894 44.9692 493.036 47.6114 493.036Z" fill="#FFD84B"/>
<path d="M48.1833 496.308H46.8329V505.761H48.1833V496.308Z" fill="#3F3D56"/>
<path d="M128.636 503.009C128.636 503.009 129.102 493.239 138.66 494.374Z" fill="#3F3D56"/>
<path d="M125.935 493.711C128.577 493.711 130.719 491.569 130.719 488.927C130.719 486.285 128.577 484.143 125.935 484.143C123.293 484.143 121.151 486.285 121.151 488.927C121.151 491.569 123.293 493.711 125.935 493.711Z" fill="#FFD84B"/>
<path d="M126.507 496.983H125.156V506.436H126.507V496.983Z" fill="#3F3D56"/>
<path d="M336.932 62.4739L346.529 54.7988C339.074 53.9764 336.011 58.042 334.757 61.2601C328.933 58.8417 322.593 62.0111 322.593 62.0111L341.793 68.9814C340.825 66.3942 339.138 64.1369 336.932 62.4739V62.4739Z" fill="#3F3D56"/>
<path d="M482.87 140.655L492.466 132.98C485.012 132.157 481.948 136.223 480.695 139.441C474.871 137.023 468.531 140.192 468.531 140.192L487.731 147.162C486.762 144.575 485.076 142.318 482.87 140.655V140.655Z" fill="#3F3D56"/>
<path d="M325.466 207.369L335.062 199.694C327.607 198.872 324.544 202.937 323.291 206.155C317.467 203.737 311.126 206.906 311.126 206.906L330.327 213.877C329.358 211.29 327.672 209.032 325.466 207.369Z" fill="#3F3D56"/>
<path d="M512.741 507.23C512.741 507.23 513.208 497.46 522.766 498.596Z" fill="#3F3D56"/>
<path d="M422.94 507.23C422.94 507.23 423.406 497.46 432.964 498.596Z" fill="#3F3D56"/>
<path d="M95.4665 507.23C95.4665 507.23 95.9328 497.46 105.491 498.596Z" fill="#3F3D56"/>
<path d="M553.254 507.23C553.254 507.23 553.72 497.46 563.278 498.596Z" fill="#3F3D56"/>
<path d="M534.348 507.23C534.348 507.23 534.814 497.46 544.373 498.596Z" fill="#3F3D56"/>
<path d="M495.349 507.23C495.349 507.23 494.882 497.46 485.324 498.596Z" fill="#3F3D56"/>
<path d="M340.052 507.23C340.052 507.23 339.586 497.46 330.028 498.596Z" fill="#3F3D56"/>
<path d="M211.089 507.23C211.089 507.23 210.622 497.46 201.064 498.596Z" fill="#3F3D56"/>
<path d="M74.0227 507.23C74.0227 507.23 73.5564 497.46 63.9979 498.596Z" fill="#3F3D56"/>
<path d="M593.928 507.23C593.928 507.23 593.462 497.46 583.904 498.596Z" fill="#3F3D56"/>
<path d="M535.861 507.905C535.861 507.905 535.395 498.135 525.836 499.271Z" fill="#3F3D56"/>
<path d="M666 505.953H0V507.453H666V505.953Z" fill="#3F3D56"/>
<g clip-path="url(#clip1_1_24)">
<path d="M487.447 298.954C489.38 298.906 491.142 300.242 492.034 301.91C492.926 303.578 493.088 305.524 493.043 307.403C492.999 309.283 492.765 311.166 492.935 313.039C493.298 317.023 495.592 320.801 499.005 323.035C497.718 323.132 496.456 322.553 495.484 321.728C494.512 320.903 493.785 319.845 493.069 318.802C492.463 317.918 491.854 317.029 491.42 316.055C490.783 314.629 490.541 313.07 490.312 311.531C489.748 307.741 489.228 303.946 488.753 300.145" fill="#2F2E41"/>
<path d="M454.692 503.337L461.217 503.337L464.32 478.87L454.691 478.871L454.692 503.337Z" fill="#FFB6B6"/>
<path d="M477.046 503.194C477.249 503.526 477.356 504.6 477.356 504.987C477.356 506.176 476.365 507.14 475.142 507.14H454.936C454.102 507.14 453.426 506.482 453.426 505.671V504.853C453.426 504.853 452.426 502.395 454.484 499.365C454.484 499.365 457.042 501.738 460.863 498.022L461.99 496.037L470.149 501.838L474.67 502.379C475.66 502.497 476.537 502.36 477.046 503.194H477.046V503.194Z" fill="#2F2E41"/>
<path d="M482.849 498.718L489.191 500.206L498.113 477.13L488.752 474.934L482.849 498.718Z" fill="#FFB6B6"/>
<path d="M504.613 503.677C504.731 504.047 504.576 505.115 504.482 505.491C504.195 506.647 502.999 507.358 501.81 507.079L482.169 502.47C481.358 502.28 480.859 501.486 481.055 500.698L481.252 499.903C481.252 499.903 480.873 497.285 483.605 494.81C483.605 494.81 485.519 497.699 490.131 494.959L491.705 493.286L498.236 500.786L502.501 502.344C503.434 502.684 504.32 502.751 504.613 503.677L504.613 503.677V503.677Z" fill="#2F2E41"/>
<path d="M520.686 381.213C519.471 380.255 518.578 379.109 518.08 377.979L505.906 369.558L510.196 364.043L522.084 373.179C523.324 373.42 524.661 374.033 525.877 374.991C528.654 377.181 529.744 380.349 528.31 382.067C526.877 383.786 523.463 383.403 520.686 381.213H520.686V381.213Z" fill="#FFB6B6"/>
<path d="M518.441 368.811L517.872 369.942L514.923 375.795L514.051 377.522L505.471 370.032L498.573 364.012L482.357 349.858C481.232 348.877 480.682 347.544 480.682 346.218C480.682 344.63 481.469 343.055 482.986 342.098C483.926 341.505 485.041 341.235 486.156 341.328C488.789 341.548 494.093 342.021 499.72 342.673L501.656 348.122L500.707 353.018L498.125 352.275L500.477 354.192L518.441 368.811V368.811Z" fill="#FFD84B"/>
<path d="M467.147 363.034C468.397 363.041 471.019 379.506 469.064 381.984C467.46 384.016 496.852 381.984 496.852 381.984C494.089 381.437 495.332 363.847 498.302 363.034L480.567 357.753L467.147 363.034H467.147Z" fill="#FFB6B6"/>
<path d="M495.547 379.762H469.416C469.416 379.762 458.519 396.584 458.519 429.202L454.046 481.702L465.229 482.324L483.249 411.156L493.151 446.095L486.318 483.37H497.147L509.966 441.339L507.407 419.262C507.407 419.262 504.738 388.923 495.547 379.762V379.762Z" fill="#2F2E41"/>
<path d="M501.656 348.122L500.707 353.018L500.477 354.192L498.573 364.012L495.99 367.706C495.99 367.706 477.601 362.163 468.973 368.997L462.035 347.19L469.384 331.657L475.135 328.551L476.094 324.823H488.278L490.153 328.551L495.585 331.036L499.72 342.673L501.656 348.122L501.656 348.122Z" fill="#FFD84B"/>
<path d="M497.957 330.391C496.961 331.565 495.775 332.423 494.609 332.899L485.851 344.667L480.213 340.451L489.704 328.968C489.963 327.764 490.603 326.469 491.599 325.294C493.873 322.612 497.14 321.578 498.896 322.985C500.652 324.393 500.231 327.708 497.957 330.391V330.391V330.391Z" fill="#FFB6B6"/>
<path d="M474.346 331.854C474.346 331.854 465.071 326.896 462.06 331.854C459.49 336.084 457.257 357.457 456.657 363.64C456.551 364.726 456.821 365.811 457.423 366.731V366.731C459.206 369.455 463.163 369.788 465.401 367.403L494.106 336.812L485.182 332.474L469.884 347.967L474.346 331.854V331.854Z" fill="#FFD84B"/>
<path d="M480.711 322.453C487.152 322.453 492.374 317.376 492.374 311.114C492.374 304.852 487.152 299.775 480.711 299.775C474.27 299.775 469.049 304.852 469.049 311.114C469.049 317.376 474.27 322.453 480.711 322.453Z" fill="#FFB6B6"/>
<path d="M489.692 304.986C487.874 306.179 486.71 308.18 486.415 311.16C485.273 310.279 485.103 308.674 485.538 306.622C484.744 308.723 478.297 319.415 477.871 322.795C477.601 324.948 478.487 327.118 479.847 328.836C481.118 330.438 482.774 331.695 484.471 332.875C481.282 331.743 478.624 329.25 477.362 326.184C475.537 321.757 476.623 316.831 478.057 312.194C477.721 312.81 477.238 313.933 476.68 314.373C475.963 314.937 475.112 314.76 474.536 315.462C473.837 316.315 473.704 317.507 473.921 318.58C474.142 319.652 474.674 320.633 475.196 321.598C467.802 320.246 465.603 312.03 468.983 306.433C466.821 310.205 466.352 317.8 469.102 321.185C470.643 323.083 472.876 324.565 473.646 326.864C474.187 328.479 473.89 330.279 473.146 331.816C472.402 333.353 471.237 334.662 470.006 335.868C469.501 336.363 468.983 336.841 468.442 337.306C467.845 336.715 466.832 336.994 466.611 337.795C466.489 338.239 466.295 338.698 466.051 339.166C463.862 339.649 460.908 338.979 460.457 341.969C460.337 342.767 458.854 342.413 458.03 342.542C458.252 341.941 457.535 341.41 457.011 341.794C456.326 342.296 455.597 342.59 454.832 342.714C452.883 342.611 450.975 342.129 449.283 341.19C454.677 337.922 459.41 338.865 461.518 333.035C461.848 332.123 461.954 330.22 461.949 328.08C461.935 323.228 460.762 318.466 458.74 314.03C458.494 313.489 458.306 312.966 458.225 312.508C457.636 309.206 458.552 304.667 460.041 302.531C461.529 300.4 464.102 299.022 466.755 298.953C468.079 298.914 468.867 299.478 470.037 298.871C471.286 298.221 471.578 299.074 472.424 297.971C473.934 296.004 476.507 294.987 479.032 294.901C481.556 294.815 482.969 294.13 485.263 295.159C486.712 295.81 488.38 299.452 489.976 299.474C493.28 299.52 493.914 302.215 489.692 304.986V304.986Z" fill="#2F2E41"/>
<path d="M484.838 333.129C484.714 333.043 484.595 332.961 484.471 332.875C484.568 332.914 484.665 332.948 484.763 332.979L484.838 333.129V333.129Z" fill="#2F2E41"/>
<path d="M541.708 379.221C539.867 377.109 537.178 375.897 534.331 375.897H523.138C520.196 375.897 517.451 377.175 515.607 379.402C513.762 381.629 513.064 384.509 513.692 387.303L516.134 398.177C515.535 399.671 515.202 401.294 515.202 402.995C515.202 410.32 521.31 416.258 528.844 416.258C536.378 416.258 542.486 410.32 542.486 402.995C542.486 401.551 542.245 400.164 541.807 398.863L543.868 386.843C544.336 384.112 543.549 381.334 541.708 379.221L541.708 379.221ZM528.844 389.732C524.875 389.732 521.303 391.381 518.81 394.012L517.138 386.571C516.74 384.797 517.183 382.968 518.355 381.553C519.526 380.139 521.27 379.327 523.138 379.327H534.331C536.139 379.327 537.847 380.097 539.016 381.438C540.185 382.78 540.685 384.544 540.388 386.279L539.033 394.18C536.535 391.452 532.897 389.732 528.844 389.732V389.732Z" fill="#3F3D56"/>
<path d="M415.783 478.451C414.339 476.794 412.231 475.844 409.998 475.844H401.221C398.914 475.844 396.762 476.846 395.316 478.593C393.869 480.339 393.322 482.597 393.814 484.788L395.729 493.315C395.259 494.486 394.998 495.76 394.998 497.093C394.998 502.837 399.787 507.493 405.695 507.493C411.603 507.493 416.393 502.837 416.393 497.093C416.393 495.961 416.204 494.873 415.86 493.853L417.476 484.427C417.843 482.286 417.226 480.107 415.783 478.451H415.783ZM405.695 486.693C402.583 486.693 399.782 487.986 397.827 490.049L396.517 484.214C396.204 482.823 396.552 481.389 397.47 480.279C398.389 479.17 399.756 478.534 401.221 478.534H409.998C411.416 478.534 412.755 479.137 413.672 480.189C414.589 481.242 414.981 482.625 414.747 483.985L413.685 490.181C411.726 488.041 408.873 486.693 405.695 486.693V486.693Z" fill="#3F3D56"/>
<path d="M471.177 300.101L470.331 299.846C470.457 296.961 471.26 294.334 472.83 292L473.676 292.255L471.177 300.101Z" fill="#FFD84B"/>
<path d="M471.182 299.092L470.638 299.771L463.967 294.732L464.511 294.052C467.456 295.063 469.605 296.812 471.182 299.092V299.092Z" fill="#FFD84B"/>
<path d="M509.786 500.537C510.701 500.592 511.207 499.487 510.515 498.843L510.446 498.577C510.455 498.555 510.464 498.534 510.473 498.513C511.399 496.368 514.535 496.383 515.452 498.531C516.266 500.438 517.303 502.348 517.558 504.364C517.673 505.254 517.621 506.16 517.418 507.033C519.326 502.981 520.33 498.557 520.33 494.107C520.33 492.989 520.267 491.871 520.139 490.756C520.033 489.843 519.887 488.937 519.698 488.038C518.677 483.182 516.466 478.557 513.276 474.694C511.743 473.88 510.464 472.606 509.692 471.079C509.414 470.528 509.197 469.936 509.094 469.332C509.268 469.355 509.752 466.771 509.62 466.612C509.863 466.254 510.299 466.075 510.564 465.725C511.885 463.984 513.705 464.288 514.655 466.654C516.684 467.65 516.704 469.302 515.459 470.89C514.666 471.9 514.558 473.268 513.862 474.35C513.934 474.439 514.008 474.525 514.08 474.614C515.391 476.249 516.526 478.007 517.482 479.853C517.212 477.801 517.61 475.329 518.291 473.735C519.065 471.919 520.516 470.39 521.794 468.82C523.329 466.934 526.477 467.757 526.747 470.147C526.75 470.171 526.753 470.194 526.755 470.217C526.565 470.321 526.379 470.432 526.198 470.548C525.162 471.215 525.52 472.776 526.747 472.96L526.775 472.965C526.707 473.629 526.589 474.288 526.418 474.936C528.057 481.101 524.518 483.346 519.464 483.447C519.352 483.502 519.243 483.558 519.132 483.611C519.644 485.012 520.053 486.45 520.356 487.908C520.628 489.195 520.817 490.497 520.922 491.804C521.054 493.453 521.043 495.111 520.9 496.757L520.908 496.699C521.271 494.885 522.284 493.192 523.754 492.018C525.945 490.269 529.039 489.625 531.402 488.218C532.54 487.542 533.998 488.416 533.799 489.698L533.789 489.76C533.437 489.899 533.094 490.06 532.762 490.241C532.573 490.345 532.387 490.456 532.205 490.572C531.169 491.239 531.527 492.8 532.755 492.985L532.782 492.989C532.802 492.992 532.82 492.994 532.84 492.997C532.236 494.39 531.395 495.684 530.342 496.799C529.317 502.18 524.914 502.691 520.204 501.124H520.202C519.687 503.304 518.934 505.434 517.967 507.465H509.986C509.958 507.378 509.932 507.289 509.906 507.203C510.644 507.248 511.388 507.206 512.115 507.075C511.522 506.369 510.93 505.657 510.338 504.95C510.324 504.936 510.312 504.923 510.301 504.909C510.001 504.547 509.697 504.188 509.397 503.827L509.397 503.826C509.378 502.717 509.515 501.61 509.786 500.537L509.786 500.537V500.537Z" fill="#3F3D56"/>
</g>
</g>
<defs>
<clipPath id="clip0_1_24">
<rect width="666" height="507.905" fill="white"/>
</clipPath>
<clipPath id="clip1_1_24">
<rect width="197" height="216" fill="white" transform="translate(347 292)"/>
</clipPath>
</defs>
</svg>
